

<svg width="16" height="17" viewBox="0 0 16 17" fill="none" xmlns="http://www.w3.org/2000/svg">
    <g clip-path="url(#clip0_45_16)">
        <path fill-rule="evenodd" clip-rule="evenodd"
            d="M4.6087 10.6912C5.57343 10.4609 6.74147 10.3261 8 10.3261C9.25853 10.3261 10.4266 10.4609 11.3913 10.6912C12.3048 10.9093 13.3322 11.4223 13.7854 11.7784L8.28287 2.95363C8.15237 2.74434 7.84763 2.74434 7.71713 2.95363L2.21458 11.7784C2.66777 11.4223 3.6952 10.9093 4.6087 10.6912Z"
            fill="#0D171C" />
        <path fill-rule="evenodd" clip-rule="evenodd"
            d="M13.3327 12.4212C13.3315 12.4153 13.3292 12.4051 13.325 12.3901C13.3146 12.3533 13.2983 12.3085 13.2782 12.2607C13.2723 12.2467 13.2663 12.233 13.2605 12.22C12.8368 11.9295 11.993 11.5201 11.2365 11.3395C10.3292 11.1229 9.21381 10.9927 8.00004 10.9927C6.78628 10.9927 5.67088 11.1229 4.76354 11.3395C4.00044 11.5217 3.14839 11.9367 2.7285 12.2276C2.72466 12.2357 2.72076 12.2442 2.71688 12.253C2.69977 12.2916 2.68578 12.3294 2.67663 12.3629C2.6679 12.3948 2.66672 12.4128 2.66672 12.4128C2.66672 12.4213 2.67018 12.5255 2.89499 12.7104C3.1152 12.8914 3.47411 13.0843 3.97641 13.259C4.97478 13.6062 6.39734 13.8332 8.00004 13.8332C9.60274 13.8332 11.0253 13.6062 12.0237 13.259C12.526 13.0843 12.8849 12.8914 13.1051 12.7104C13.3002 12.5499 13.3286 12.4503 13.3327 12.4212ZM1.65064 11.4228L7.15148 2.60078C7.54298 1.97292 8.45711 1.97292 8.84861 2.60078L14.3512 11.4256C14.357 11.435 14.3626 11.4445 14.368 11.4542L13.7855 11.7783C14.368 11.4542 14.368 11.4542 14.368 11.4542L14.3689 11.4557L14.3701 11.4579L14.3733 11.4638C14.3759 11.4686 14.3793 11.4748 14.3833 11.4823C14.3913 11.4974 14.4021 11.5181 14.4147 11.5432C14.4397 11.593 14.4732 11.6629 14.5073 11.7438C14.5634 11.8773 14.6667 12.1436 14.6667 12.4129C14.6667 12.9808 14.3344 13.4257 13.952 13.7402C13.5649 14.0585 13.0452 14.3154 12.4617 14.5183C11.2885 14.9264 9.71104 15.1666 8.00004 15.1666C6.28904 15.1666 4.71158 14.9264 3.53838 14.5183C2.95492 14.3154 2.43514 14.0585 2.04811 13.7402C1.66569 13.4257 1.33337 12.9808 1.33337 12.4129C1.33337 12.1241 1.43092 11.864 1.49778 11.713C1.53463 11.6298 1.5712 11.56 1.599 11.5103C1.61304 11.4851 1.6252 11.4644 1.63454 11.4489C1.63922 11.4412 1.64322 11.4347 1.64643 11.4295L1.64892 11.4256L1.65064 11.4228ZM11.9956 10.1679L8.00004 3.75988L4.00441 10.1679C4.15541 10.1202 4.30601 10.078 4.45394 10.0426C5.47608 9.79859 6.69674 9.65932 8.00004 9.65932C9.30334 9.65932 10.524 9.79859 11.5461 10.0426C11.694 10.078 11.8447 10.1202 11.9956 10.1679Z"
            fill="#0D171C" />
    </g>
    <defs>
        <clipPath id="clip0_45_16">
            <rect width="16" height="16" fill="white" transform="translate(0 0.5)" />
        </clipPath>
    </defs>
</svg>
    